HIERARCHY
ROOT Hips
{
    OFFSET   0.000000   0.000000   0.000000
    CHANNELS 6 Xposition Yposition Zposition Zrotation Xrotation Yrotation
    JOINT Chest
    {
        OFFSET   0.000000   8.007240   0.000000
        CHANNELS 3 Zrotation Xrotation Yrotation
        JOINT Chest2
        {
            OFFSET   0.000000  22.077100   0.000000
            CHANNELS 3 Zrotation Xrotation Yrotation
            JOINT Neck
            {
                OFFSET   0.000000  23.254800   0.000000
                CHANNELS 3 Zrotation Xrotation Yrotation
                JOINT Head
                {
                    OFFSET   0.000000  14.370000   1.956600
                    CHANNELS 3 Zrotation Xrotation Yrotation
                    End Site
                    {
                        OFFSET   0.000000  19.566000   0.000000
                    }
                }
            }
            JOINT LeftCollar
            {
                OFFSET   3.911900  19.017000  -0.467064
                CHANNELS 3 Zrotation Xrotation Yrotation
                JOINT LeftShoulder
                {
                    OFFSET  10.383700   0.000000   0.000000
                    CHANNELS 3 Zrotation Xrotation Yrotation
                    JOINT LeftElbow
                    {
                        OFFSET  26.662100   0.001476   0.000517
                        CHANNELS 3 Zrotation Xrotation Yrotation
                        JOINT LeftWrist
                        {
                            OFFSET  28.869000  -0.000025  -0.000106
                            CHANNELS 3 Zrotation Xrotation Yrotation
                            JOINT LeftFinger0
                            {
                                OFFSET   2.044660  -2.323460   3.252850
                                CHANNELS 3 Zrotation Xrotation Yrotation
                                JOINT LeftFinger01
                                {
                                    OFFSET   3.088130   0.000000   0.000000
                                    CHANNELS 3 Zrotation Xrotation Yrotation
                                    JOINT LeftFinger02
                                    {
                                        OFFSET   2.639460   0.000000   0.000000
                                        CHANNELS 3 Zrotation Xrotation Yrotation
                                        End Site
                                        {
                                            OFFSET   2.582190   0.000000   0.000000
                                        }
                                    }
                                }
                            }
                            JOINT LeftFinger1
                            {
                                OFFSET   8.364480   0.000000   3.252850
                                CHANNELS 3 Zrotation Xrotation Yrotation
                                JOINT LeftFinger11
                                {
                                    OFFSET   4.646930   0.000000   0.000000
                                    CHANNELS 3 Zrotation Xrotation Yrotation
                                    JOINT LeftFinger12
                                    {
                                        OFFSET   2.323460   0.000000   0.000000
                                        CHANNELS 3 Zrotation Xrotation Yrotation
                                        End Site
                                        {
                                            OFFSET   2.273050   0.000000   0.000000
                                        }
                                    }
                                }
                            }
                            JOINT LeftFinger2
                            {
                                OFFSET   8.364490   0.000015   1.078090
                                CHANNELS 3 Zrotation Xrotation Yrotation
                                JOINT LeftFinger21
                                {
                                    OFFSET   5.111620   0.000000   0.000000
                                    CHANNELS 3 Zrotation Xrotation Yrotation
                                    JOINT LeftFinger22
                                    {
                                        OFFSET   2.788160   0.000016   0.000000
                                        CHANNELS 3 Zrotation Xrotation Yrotation
                                        End Site
                                        {
                                            OFFSET   2.727660   0.000000   0.000000
                                        }
                                    }
                                }
                            }
                            JOINT LeftFinger3
                            {
                                OFFSET   7.899780   0.000017  -1.078090
                                CHANNELS 3 Zrotation Xrotation Yrotation
                                JOINT LeftFinger31
                                {
                                    OFFSET   4.646930   0.000000   0.000000
                                    CHANNELS 3 Zrotation Xrotation Yrotation
                                    JOINT LeftFinger32
                                    {
                                        OFFSET   2.323470   0.000000   0.000000
                                        CHANNELS 3 Zrotation Xrotation Yrotation
                                        End Site
                                        {
                                            OFFSET   2.273050   0.000000   0.000000
                                        }
                                    }
                                }
                            }
                            JOINT LeftFinger4
                            {
                                OFFSET   7.435090   0.000000  -3.252850
                                CHANNELS 3 Zrotation Xrotation Yrotation
                                JOINT LeftFinger41
                                {
                                    OFFSET   3.717550   0.000000   0.000000
                                    CHANNELS 3 Zrotation Xrotation Yrotation
                                    JOINT LeftFinger42
                                    {
                                        OFFSET   1.858770   0.000000   0.000000
                                        CHANNELS 3 Zrotation Xrotation Yrotation
                                        End Site
                                        {
                                            OFFSET   1.818440   0.000000   0.000000
                                        }
                                    }
                                }
                            }
                        }
                    }
                }
            }
            JOINT RightCollar
            {
                OFFSET  -3.911900  19.017000  -0.467063
                CHANNELS 3 Zrotation Xrotation Yrotation
                JOINT RightShoulder
                {
                    OFFSET -10.383700   0.000019   0.000000
                    CHANNELS 3 Zrotation Xrotation Yrotation
                    JOINT RightElbow
                    {
                        OFFSET -26.662100   0.001175   0.000102
                        CHANNELS 3 Zrotation Xrotation Yrotation
                        JOINT RightWrist
                        {
                            OFFSET -28.869000   0.000016  -0.000079
                            CHANNELS 3 Zrotation Xrotation Yrotation
                            JOINT RightFinger0
                            {
                                OFFSET  -2.044660  -2.323490   3.252850
                                CHANNELS 3 Zrotation Xrotation Yrotation
                                JOINT RightFinger01
                                {
                                    OFFSET  -3.088140   0.000000   0.000000
                                    CHANNELS 3 Zrotation Xrotation Yrotation
                                    JOINT RightFinger02
                                    {
                                        OFFSET  -2.639460   0.000000   0.000000
                                        CHANNELS 3 Zrotation Xrotation Yrotation
                                        End Site
                                        {
                                            OFFSET  -2.582190   0.000000   0.000000
                                        }
                                    }
                                }
                            }
                            JOINT RightFinger1
                            {
                                OFFSET  -8.364480   0.000000   3.252850
                                CHANNELS 3 Zrotation Xrotation Yrotation
                                JOINT RightFinger11
                                {
                                    OFFSET  -4.646930   0.000000   0.000000
                                    CHANNELS 3 Zrotation Xrotation Yrotation
                                    JOINT RightFinger12
                                    {
                                        OFFSET  -2.323470   0.000000   0.000000
                                        CHANNELS 3 Zrotation Xrotation Yrotation
                                        End Site
                                        {
                                            OFFSET  -2.273050   0.000000   0.000000
                                        }
                                    }
                                }
                            }
                            JOINT RightFinger2
                            {
                                OFFSET  -8.364480   0.000000   1.078090
                                CHANNELS 3 Zrotation Xrotation Yrotation
                                JOINT RightFinger21
                                {
                                    OFFSET  -5.111620   0.000000   0.000000
                                    CHANNELS 3 Zrotation Xrotation Yrotation
                                    JOINT RightFinger22
                                    {
                                        OFFSET  -2.788160   0.000000   0.000000
                                        CHANNELS 3 Zrotation Xrotation Yrotation
                                        End Site
                                        {
                                            OFFSET  -2.727660   0.000000   0.000000
                                        }
                                    }
                                }
                            }
                            JOINT RightFinger3
                            {
                                OFFSET  -7.899780   0.000000  -1.078090
                                CHANNELS 3 Zrotation Xrotation Yrotation
                                JOINT RightFinger31
                                {
                                    OFFSET  -4.646930   0.000000   0.000000
                                    CHANNELS 3 Zrotation Xrotation Yrotation
                                    JOINT RightFinger32
                                    {
                                        OFFSET  -2.323470   0.000000   0.000000
                                        CHANNELS 3 Zrotation Xrotation Yrotation
                                        End Site
                                        {
                                            OFFSET  -2.273050   0.000000   0.000000
                                        }
                                    }
                                }
                            }
                            JOINT RightFinger4
                            {
                                OFFSET  -7.435090   0.000000  -3.252850
                                CHANNELS 3 Zrotation Xrotation Yrotation
                                JOINT RightFinger41
                                {
                                    OFFSET  -3.717550   0.000000   0.000000
                                    CHANNELS 3 Zrotation Xrotation Yrotation
                                    JOINT RightFinger42
                                    {
                                        OFFSET  -1.858770   0.000000   0.000000
                                        CHANNELS 3 Zrotation Xrotation Yrotation
                                        End Site
                                        {
                                            OFFSET  -1.818440   0.000000   0.000000
                                        }
                                    }
                                }
                            }
                        }
                    }
                }
            }
        }
    }
    JOINT LeftHip
    {
        OFFSET   9.783040   0.000000   0.000000
        CHANNELS 3 Zrotation Xrotation Yrotation
        JOINT LeftKnee
        {
            OFFSET   0.000032 -41.789100  -0.002222
            CHANNELS 3 Zrotation Xrotation Yrotation
            JOINT LeftAnkle
            {
                OFFSET   0.000087 -41.133200  -0.000135
                CHANNELS 3 Zrotation Xrotation Yrotation
                JOINT LeftToe
                {
                    OFFSET   0.000000  -6.358960  14.674500
                    CHANNELS 3 Zrotation Xrotation Yrotation
                    End Site
                    {
                        OFFSET   0.000000   0.000000   3.913200
                    }
                }
            }
        }
    }
    JOINT RightHip
    {
        OFFSET  -9.783040   0.000000   0.000000
        CHANNELS 3 Zrotation Xrotation Yrotation
        JOINT RightKnee
        {
            OFFSET   0.000047 -41.789100  -0.000896
            CHANNELS 3 Zrotation Xrotation Yrotation
            JOINT RightAnkle
            {
                OFFSET  -0.000117 -41.133300  -0.000248
                CHANNELS 3 Zrotation Xrotation Yrotation
                JOINT RightToe
                {
                    OFFSET   0.000000  -6.358970  14.674500
                    CHANNELS 3 Zrotation Xrotation Yrotation
                    End Site
                    {
                        OFFSET   0.000000   0.000000   3.913200
                    }
                }
            }
        }
    }
}
MOTION
Frames: 5
Frame Time:   0.016667
  4.132410  89.767200   3.840140  -3.504250 -15.429400  -7.956770   3.344290   6.305910  -2.048590   6.976760  12.475600  -4.507470   6.892380   4.513700  -0.544526  11.497700   8.753690   0.618282   9.818690   1.284630   1.157580 -42.516400 -15.165100 -81.662900  16.174300 -32.931900 -100.276000  17.038200  44.218900  10.854800  59.093700  54.427900 -108.334000 -33.204000   0.000504   0.000584 -11.602000  -0.000373  -0.000931  -7.816050  -0.433574   3.170620  -6.404920  -0.003813  -0.001771  -4.483440  -0.005275  -0.005165 -14.305900  -1.826430   7.163680 -14.415100   0.001842   0.000421  -9.600480  -0.000679   0.000266 -73.641200  -7.097610   2.072190 -73.769500  -0.000958   0.002933 -55.327100  -0.002265  -0.003050 -77.563300  -9.769550   2.144510 -110.000000  -0.001173   0.004128 -77.668600  -0.003218  -0.004923  -2.955040  -0.257248  -0.215888  64.388700  -2.004540  67.170400  -9.525340 -31.394300 112.324000 -111.991000  76.062800 108.314000 -33.719100  41.251500  74.840600  50.683900   0.001407  -0.001533  25.789200  -0.000108   0.007791   4.090400   0.014576   0.177438   3.346690  -0.005250  -0.000548   2.342680  -0.003139  -0.007926   0.179901  -0.003035   0.177890   0.169760  -0.007763  -0.000362   0.113067   0.006820  -0.000840  70.316800  -5.286770  -1.887800  70.404100  -0.001129  -0.001311  52.803000  -0.005567  -0.000392  76.923600  -9.747060  -2.251630 110.000000  -0.003755   0.002408  77.038500  -0.002517   0.002466  -1.827300  16.427900   4.197700  -1.196280   3.262720  15.086600  -1.877710  -7.293270   9.117370  -0.000000   0.000000   0.000000   2.046940  11.869300 -10.113600  -3.351160  10.765900  -6.126880  -7.320220  -3.835270   6.651390   0.000000   0.000000   0.000000
  4.050270  89.758900   3.911850  -3.529030 -15.542300  -7.978530   3.351480   6.264850  -2.087260   6.993830  12.391200  -4.582450   6.848960   4.617490  -0.553915  11.446200   8.962590   0.827397   9.872120   1.527950   1.344650 -42.997900 -14.815500 -82.006700  14.946200 -32.031000 -100.185000  17.634000  45.121000  10.407200  59.150000  54.526200 -108.380000 -33.419800   0.000595   0.000641 -11.709900  -0.000427  -0.000903  -7.706430  -0.389775   2.873510  -6.313380  -0.004225  -0.001779  -4.419360  -0.005346  -0.005229 -14.139200  -1.829820   7.219230 -14.254800   0.002399   0.000411  -9.493710  -0.000543   0.000285 -73.763000  -7.152200   2.077570 -73.892900  -0.000930   0.002877 -55.419700  -0.002250  -0.003097 -77.763500  -9.777120   2.109840 -110.000000  -0.001136   0.004086 -77.865900  -0.003121  -0.004832  -3.230150  -0.214891  -0.191505  64.209700  -2.029640  67.376000  -9.357450 -31.545100 111.770000 -112.268000  76.006900 108.588000 -33.772900  41.283900  74.910900  50.592600   0.001531  -0.001796  25.680300   0.000142   0.007834   4.053600   0.017377   0.247016   3.316550  -0.005349  -0.000545   2.321600  -0.003400  -0.007984   0.142624  -0.003434   0.247650   0.142572  -0.007797  -0.000326   0.094954   0.006905  -0.000845  70.412100  -5.278050  -1.874780  70.498600  -0.001059  -0.001162  52.873800  -0.005627  -0.000313  76.998100  -9.748680  -2.238970 110.000000  -0.003769   0.002403  77.111800  -0.002363   0.002433  -1.784590  16.534600   4.241160  -1.195600   3.439440  15.154200  -1.929250  -7.399450   9.020860  -0.000000   0.000000   0.000000   2.116510  11.977300  -9.986380  -3.328380  10.872400  -6.126530  -7.395220  -3.904520   6.521420   0.000000   0.000000   0.000000
  3.948000  89.763000   3.968990  -3.538650 -15.673800  -7.969880   3.336270   6.267460  -2.117770   6.967130  12.395800  -4.640680   6.800130   4.628830  -0.553348  11.374200   8.993460   1.090610   9.753900   1.740580   1.433130 -43.701800 -14.405700 -82.079400  14.250400 -31.250200 -100.409000  17.882300  45.603500  10.169200  59.238600  54.679900 -108.453000 -33.740900   0.000697   0.000700 -11.870500  -0.000488  -0.000873  -7.614750  -0.356110   2.653660  -6.237190  -0.004638  -0.001796  -4.366030  -0.005415  -0.005296 -13.917400  -1.790820   7.154110 -14.027400   0.002958   0.000412  -9.342260  -0.000397   0.000302 -73.908400  -7.086440   2.043350 -74.035200  -0.000905   0.002826 -55.526400  -0.002226  -0.003143 -77.886000  -9.781540   2.088840 -110.000000  -0.001081   0.004045 -77.986500  -0.003029  -0.004742  -3.395610  -0.357390  -0.197022  64.314600  -1.916250  67.201100  -9.388890 -31.426200 111.713000 -112.534000  76.141700 108.782000 -33.741800  41.200500  74.857600  50.536800   0.001654  -0.001967  25.613600   0.000394   0.007878   4.056610   0.021816   0.309750   3.318980  -0.005439  -0.000563   2.323300  -0.003670  -0.008035   0.165060  -0.003846   0.310492   0.164942  -0.007824  -0.000282   0.109845   0.006987  -0.000842  70.540000  -5.266310  -1.857420  70.625400  -0.000981  -0.001020  52.968900  -0.005690  -0.000238  77.110700  -9.752950  -2.219860 110.000000  -0.003789   0.002403  77.222800  -0.002219   0.002393  -1.749990  16.640400   4.224490  -1.196490   3.634070  15.224100  -1.986270  -7.516800   8.952540   0.000000   0.000000   0.000000   2.191210  12.117500  -9.836640  -3.299030  10.955900  -6.195700  -7.479710  -3.978320   6.395050  -0.000000   0.000000  -0.000000
  3.830360  89.771500   4.013260  -3.534800 -15.808100  -7.936270   3.291050   6.286570  -2.132420   6.878170  12.434500  -4.668520   6.769730   4.630450  -0.549318  11.314500   8.997160   1.337250   9.538940   1.852210   1.458380 -44.670600 -13.993700 -81.897600  13.553300 -30.695900 -100.871000  18.055700  45.907300   9.956570  59.330100  54.837400 -108.529000 -34.052400   0.000804   0.000756 -12.026200  -0.000549  -0.000841  -7.564270  -0.326377   2.456600  -6.194540  -0.005047  -0.001814  -4.336170  -0.005484  -0.005362 -13.756900  -1.729270   7.025500 -13.863400   0.003512   0.000412  -9.233020  -0.000234   0.000322 -74.056700  -6.958540   1.982500 -74.177500  -0.000880   0.002779 -55.633100  -0.002199  -0.003191 -77.993200  -9.785290   2.070550 -110.000000  -0.001023   0.004002 -78.092200  -0.002936  -0.004652  -3.460770  -0.608519  -0.221963  64.529400  -1.685640  66.815000  -9.329090 -31.241700 111.883000 -113.111000  76.436100 109.217000 -33.683600  41.059700  74.761000  50.500100   0.001778  -0.002116  25.569800   0.000647   0.007924   4.075350   0.026799   0.371427   3.334290  -0.005531  -0.000590   2.334020  -0.003945  -0.008086   0.218061  -0.004267   0.372271   0.217885  -0.007849  -0.000237   0.145097   0.007066  -0.000839  70.677500  -5.253610  -1.838820  70.761800  -0.000900  -0.000886  53.071300  -0.005751  -0.000173  77.232500  -9.757810  -2.199230 110.000000  -0.003809   0.002404  77.342800  -0.002084   0.002350  -1.713490  16.735700   4.194600  -1.206850   3.846100  15.282900  -2.048330  -7.639810   8.887570   0.000000   0.000000  -0.000000   2.268540  12.273900  -9.683800  -3.262110  11.019800  -6.317010  -7.566210  -4.055640   6.263160  -0.000000   0.000000   0.000000
  3.694630  89.782500   4.042490  -3.511020 -15.922100  -7.874700   3.214250   6.342080  -2.120420   6.725400  12.549100  -4.641120   6.769420   4.547110  -0.537789  11.294300   8.835040   1.506660   9.299620   1.801150   1.403980 -45.134300 -13.604600 -81.421300  13.123300 -30.391700 -101.565000  18.330400  46.174800   9.672980  59.407600  54.970500 -108.593000 -34.332100   0.000906   0.000802 -12.166000  -0.000597  -0.000808  -7.568680  -0.303870   2.289080  -6.197410  -0.005447  -0.001828  -4.338380  -0.005553  -0.005421 -13.737300  -1.689760   6.886940 -13.843300   0.004054   0.000406  -9.219640  -0.000050   0.000350 -74.197600  -6.824810   1.926420 -74.309200  -0.000849   0.002740 -55.731900  -0.002171  -0.003244 -78.133100  -9.790350   2.046660 -110.000000  -0.000971   0.003951 -78.230000  -0.002842  -0.004562  -3.354080  -0.862604  -0.282140  64.810100  -1.386280  66.267400  -9.396200 -30.900300 112.428000 -113.533000  76.855000 109.483000 -33.608200  40.929500  74.647800  50.491600   0.001909  -0.002291  25.559800   0.000899   0.007969   4.135190   0.032591   0.447114   3.383390  -0.005633  -0.000604   2.368400  -0.004223  -0.008147   0.317895  -0.004693   0.448140   0.317809  -0.007875  -0.000195   0.211657   0.007142  -0.000845  70.833500  -5.238910  -1.817780  70.916600  -0.000815  -0.000761  53.187500  -0.005810  -0.000124  77.364400  -9.762320  -2.176950 110.000000  -0.003822   0.002401  77.472700  -0.001957   0.002303  -1.659610  16.806900   4.163240  -1.235310   4.058080  15.320200  -2.119750  -7.763730   8.807320  -0.000000   0.000000   0.000000   2.340740  12.422300  -9.542850  -3.220940  11.064900  -6.436190  -7.647030  -4.140040   6.122030   0.000000   0.000000  -0.000000
